<svg xmlns="http://www.w3.org/2000/svg" viewBox="0 0 460 640" font-family="Microsoft YaHei, Arial, sans-serif">
  <defs>
    <marker id="a" markerWidth="8" markerHeight="6" refX="7" refY="3" orient="auto"><polygon points="0 0,8 3,0 6" fill="#333"/></marker>
    <marker id="af" markerWidth="8" markerHeight="6" refX="7" refY="3" orient="auto"><polygon points="0 0,8 3,0 6" fill="#5c6bc0"/></marker>
  </defs>

  <rect width="460" height="640" rx="10" fill="#fff" stroke="#ccc" stroke-width="1"/>

  <!-- 标题 -->
  <text x="230" y="30" text-anchor="middle" font-size="16" font-weight="bold" fill="#222">双环 PID 级联控制框图</text>

  <!-- ==================== 外环虚线框 ==================== -->
  <rect x="30" y="44" width="400" height="190" rx="10" fill="#e8eaf6" stroke="#5c6bc0" stroke-width="1.8" stroke-dasharray="6,3" opacity="0.25"/>
  <text x="48" y="62" font-size="12" font-weight="bold" fill="#5c6bc0">外环 · 位姿环</text>

  <!-- 期望位姿 -->
  <rect x="150" y="70" width="160" height="30" rx="5" fill="#e3f2fd" stroke="#1565c0" stroke-width="1.5"/>
  <text x="230" y="90" text-anchor="middle" font-size="11" font-weight="bold" fill="#1565c0">期望位姿 (xᵣ, yᵣ, θᵣ)</text>

  <!-- ↓ 期望→求和 -->
  <line x1="230" y1="100" x2="230" y2="114" stroke="#333" stroke-width="1.5" marker-end="url(#a)"/>

  <!-- 求和点 ⊖ -->
  <circle cx="230" cy="126" r="12" fill="#fff" stroke="#333" stroke-width="1.5"/>
  <text x="226" y="130" font-size="14" font-weight="bold" fill="#333">−</text>

  <!-- ↓ 求和→PID -->
  <line x1="230" y1="138" x2="230" y2="156" stroke="#333" stroke-width="1.5" marker-end="url(#a)"/>

  <!-- 位姿PID -->
  <rect x="155" y="156" width="150" height="32" rx="6" fill="#bbdefb" stroke="#1565c0" stroke-width="2"/>
  <text x="230" y="176" text-anchor="middle" font-size="12" font-weight="bold" fill="#1565c0">位姿 PID</text>

  <!-- ↓ PID→逆运动学 -->
  <line x1="230" y1="188" x2="230" y2="204" stroke="#333" stroke-width="1.5" marker-end="url(#a)"/>
  <text x="243" y="199" font-size="9" fill="#999">v , ω</text>

  <!-- 逆运动学 -->
  <rect x="155" y="204" width="150" height="22" rx="5" fill="#fff9c4" stroke="#f9a825" stroke-width="1.5"/>
  <text x="230" y="219" text-anchor="middle" font-size="10" font-weight="bold" fill="#f57f17">逆运动学解算</text>

  <!-- ↓ 分支 -->
  <line x1="230" y1="226" x2="230" y2="238" stroke="#333" stroke-width="1.5"/>
  <circle cx="230" cy="238" r="3" fill="#333"/>

  <!-- 左分支→左求和点 -->
  <line x1="230" y1="238" x2="140" y2="238" stroke="#1565c0" stroke-width="1.3"/>
  <line x1="140" y1="238" x2="140" y2="295" stroke="#1565c0" stroke-width="1.3" marker-end="url(#a)"/>
  <text x="152" y="270" font-size="9" fill="#1565c0">ωₗᵣ</text>

  <!-- 右分支→右求和点 -->
  <line x1="230" y1="238" x2="320" y2="238" stroke="#c62828" stroke-width="1.3"/>
  <line x1="320" y1="238" x2="320" y2="295" stroke="#c62828" stroke-width="1.3" marker-end="url(#a)"/>
  <text x="332" y="270" font-size="9" fill="#c62828">ωᵣᵣ</text>

  <!-- ==================== 内环虚线框 ==================== -->
  <rect x="30" y="258" width="400" height="110" rx="10" fill="#e8f5e9" stroke="#43a047" stroke-width="1.8" stroke-dasharray="6,3" opacity="0.25"/>
  <text x="48" y="276" font-size="12" font-weight="bold" fill="#2e7d32">内环 · 轮速环</text>

  <!-- ===== 左轮：求和→PI→电机 ===== -->
  <circle cx="140" cy="305" r="10" fill="#fff" stroke="#333" stroke-width="1.2"/>
  <text x="137" y="309" font-size="10" font-weight="bold" fill="#333">−</text>
  <line x1="150" y1="305" x2="168" y2="305" stroke="#333" stroke-width="1.2" marker-end="url(#a)"/>
  <rect x="168" y="292" width="44" height="26" rx="5" fill="#c8e6c9" stroke="#2e7d32" stroke-width="1.5"/>
  <text x="190" y="309" text-anchor="middle" font-size="11" font-weight="bold" fill="#2e7d32">PI</text>
  <line x1="212" y1="305" x2="230" y2="305" stroke="#333" stroke-width="1.2" marker-end="url(#a)"/>
  <rect x="230" y="294" width="50" height="22" rx="4" fill="#fff3e0" stroke="#e65100" stroke-width="1.5"/>
  <text x="255" y="309" text-anchor="middle" font-size="10" font-weight="bold" fill="#e65100">左电机</text>

  <!-- ===== 右轮：求和→PI→电机 ===== -->
  <circle cx="320" cy="305" r="10" fill="#fff" stroke="#333" stroke-width="1.2"/>
  <text x="317" y="309" font-size="10" font-weight="bold" fill="#333">−</text>
  <line x1="330" y1="305" x2="348" y2="305" stroke="#333" stroke-width="1.2" marker-end="url(#a)"/>
  <rect x="348" y="292" width="44" height="26" rx="5" fill="#ffcdd2" stroke="#c62828" stroke-width="1.5"/>
  <text x="370" y="309" text-anchor="middle" font-size="11" font-weight="bold" fill="#c62828">PI</text>
  <line x1="392" y1="305" x2="405" y2="305" stroke="#333" stroke-width="1.2" marker-end="url(#a)"/>
  <rect x="405" y="294" width="44" height="22" rx="4" fill="#fff3e0" stroke="#e65100" stroke-width="1.5"/>
  <text x="427" y="309" text-anchor="middle" font-size="10" font-weight="bold" fill="#e65100">右电机</text>

  <!-- ==================== 电机→底盘 ==================== -->
  <!-- 左电机→底盘 -->
  <line x1="255" y1="316" x2="255" y2="360" stroke="#333" stroke-width="1.2"/>
  <line x1="255" y1="360" x2="230" y2="378" stroke="#333" stroke-width="1.2" marker-end="url(#a)"/>
  <!-- 右电机→底盘 -->
  <line x1="427" y1="316" x2="427" y2="360" stroke="#333" stroke-width="1.2"/>
  <line x1="427" y1="360" x2="340" y2="378" stroke="#333" stroke-width="1.2" marker-end="url(#a)"/>

  <!-- 差速底盘 -->
  <rect x="100" y="380" width="260" height="42" rx="8" fill="#f3e5f5" stroke="#7b1fa2" stroke-width="2"/>
  <text x="230" y="400" text-anchor="middle" font-size="13" font-weight="bold" fill="#7b1fa2">差速底盘</text>
  <text x="230" y="415" text-anchor="middle" font-size="9" fill="#999">双轮差速驱动 + 万向轮 · 被控对象</text>

  <!-- ==================== 反馈通道 ==================== -->
  <!-- 底盘→编码器 -->
  <line x1="230" y1="422" x2="230" y2="442" stroke="#333" stroke-width="1.2" marker-end="url(#a)"/>

  <!-- 编码器 -->
  <rect x="130" y="442" width="200" height="26" rx="5" fill="#e8eaf6" stroke="#5c6bc0" stroke-width="1.5"/>
  <text x="230" y="460" text-anchor="middle" font-size="10" font-weight="bold" fill="#5c6bc0">编码器测速 → ωₗ , ωᵣ</text>

  <!-- 编码器→航位推算 -->
  <line x1="230" y1="468" x2="230" y2="484" stroke="#333" stroke-width="1.2" marker-end="url(#a)"/>

  <!-- 航位推算 -->
  <rect x="130" y="484" width="200" height="26" rx="5" fill="#e8eaf6" stroke="#5c6bc0" stroke-width="1.5"/>
  <text x="230" y="502" text-anchor="middle" font-size="10" font-weight="bold" fill="#5c6bc0">航位推算 → (x, y, θ)</text>

  <!-- ===== 反馈回路 ===== -->

  <!-- 位姿反馈：航位推算→外环求和（左侧上行） -->
  <line x1="130" y1="497" x2="72" y2="497" stroke="#5c6bc0" stroke-width="1.3"/>
  <line x1="72" y1="497" x2="72" y2="126" stroke="#5c6bc0" stroke-width="1.3"/>
  <line x1="72" y1="126" x2="218" y2="126" stroke="#5c6bc0" stroke-width="1.3" marker-end="url(#af)"/>
  <text x="58" y="310" font-size="9" fill="#5c6bc0" writing-mode="tb">位姿反馈</text>

  <!-- 左轮速反馈：编码器→左求和（左侧上行） -->
  <line x1="130" y1="455" x2="48" y2="455" stroke="#5c6bc0" stroke-width="1"/>
  <line x1="48" y1="455" x2="48" y2="305" stroke="#5c6bc0" stroke-width="1"/>
  <line x1="48" y1="305" x2="130" y2="305" stroke="#5c6bc0" stroke-width="1" marker-end="url(#af)"/>

  <!-- 右轮速反馈：编码器→右求和（右侧上行） -->
  <line x1="330" y1="455" x2="445" y2="455" stroke="#5c6bc0" stroke-width="1"/>
  <line x1="445" y1="455" x2="445" y2="305" stroke="#5c6bc0" stroke-width="1"/>
  <line x1="445" y1="305" x2="330" y2="305" stroke="#5c6bc0" stroke-width="1" marker-end="url(#af)"/>

  <!-- ==================== 参数说明 ==================== -->
  <rect x="30" y="530" width="400" height="55" rx="6" fill="#f5f5f5" stroke="#ddd" stroke-width="1"/>
  <text x="50" y="548" font-size="11" font-weight="bold" fill="#333">控制参数</text>
  <text x="50" y="563" font-size="10" fill="#555">位姿环 PID：Kp=3.0, Ki=0.2, Kd=0.4</text>
  <text x="50" y="578" font-size="10" fill="#555">轮速环 PI：Kp=17.0, Ki=103.0　　Ts=5ms</text>
  <text x="280" y="563" font-size="10" fill="#555">电压限幅 ±24V</text>
  <text x="280" y="578" font-size="10" fill="#555">角速度限幅 ±1.5 rad/s</text>

</svg>