<svg xmlns="http://www.w3.org/2000/svg" viewBox="0 0 520 880" font-family="Microsoft YaHei, Arial, sans-serif">
  <defs>
    <marker id="arrow" markerWidth="8" markerHeight="6" refX="7" refY="3" orient="auto"><polygon points="0 0,8 3,0 6" fill="#555"/></marker>
    <marker id="arrB" markerWidth="8" markerHeight="6" refX="7" refY="3" orient="auto"><polygon points="0 0,8 3,0 6" fill="#1565c0"/></marker>
  </defs>

  <rect width="520" height="880" rx="10" fill="#f8f9ff" stroke="#c5cae9" stroke-width="1.5"/>

  <!-- 标题 -->
  <rect x="30" y="16" width="460" height="42" rx="8" fill="#283593"/>
  <text x="260" y="44" text-anchor="middle" font-size="18" font-weight="bold" fill="#fff">Hybrid A* 路径规划 + PID 循迹仿真</text>

  <!-- ===== 上：路径规划地图 ===== -->
  <rect x="30" y="72" width="460" height="320" rx="8" fill="#fff" stroke="#e0e0e0" stroke-width="1"/>
  <text x="260" y="92" text-anchor="middle" font-size="12" fill="#999">仓储地图 · 10m × 8m · 5个货架障碍物</text>

  <!-- 地图底色 -->
  <rect x="60" y="102" width="400" height="270" rx="2" fill="#fafafa" stroke="#ccc" stroke-width="0.8"/>

  <!-- 网格线 -->
  <g stroke="#eee" stroke-width="0.4" opacity="0.6">
    <line x1="60" y1="338.2" x2="460" y2="338.2"/>
    <line x1="60" y1="304.5" x2="460" y2="304.5"/>
    <line x1="60" y1="270.8" x2="460" y2="270.8"/>
    <line x1="60" y1="237.0" x2="460" y2="237.0"/>
    <line x1="60" y1="203.2" x2="460" y2="203.2"/>
    <line x1="60" y1="169.5" x2="460" y2="169.5"/>
    <line x1="60" y1="135.8" x2="460" y2="135.8"/>
    <line x1="100" y1="102" x2="100" y2="372"/>
    <line x1="140" y1="102" x2="140" y2="372"/>
    <line x1="180" y1="102" x2="180" y2="372"/>
    <line x1="220" y1="102" x2="220" y2="372"/>
    <line x1="260" y1="102" x2="260" y2="372"/>
    <line x1="300" y1="102" x2="300" y2="372"/>
    <line x1="340" y1="102" x2="340" y2="372"/>
    <line x1="380" y1="102" x2="380" y2="372"/>
    <line x1="420" y1="102" x2="420" y2="372"/>
  </g>

  <!-- 货架障碍物 -->
  <rect x="140.0" y="270.8" width="16.0" height="101.2" fill="#bbb" stroke="#888" stroke-width="1" rx="1"/>
  <rect x="240.0" y="203.2" width="16.0" height="101.2" fill="#bbb" stroke="#888" stroke-width="1" rx="1"/>
  <rect x="340.0" y="253.9" width="16.0" height="118.1" fill="#bbb" stroke="#888" stroke-width="1" rx="1"/>
  <rect x="340.0" y="102.0" width="16.0" height="101.2" fill="#bbb" stroke="#888" stroke-width="1" rx="1"/>
  <rect x="180.0" y="172.9" width="120.0" height="13.5" fill="#bbb" stroke="#888" stroke-width="1" rx="1"/>

  <!-- 规划路径 (红色) -->
  <path d="M 100.0 338.25 L 95.00933785329688 334.79347118432275 L 96.17169688228297 327.01928596770614 L 103.09400120664499 314.6977088166568 L 112.25388367152905 300.2793543679488 L 122.21618718205332 285.73002316197255 L 133.29201015490065 271.7966817555961 L 145.53802920048017 258.53896236036303 L 158.47735298572485 245.6977027700899 L 171.7012676285816 233.05420984773494 L 185.33224795695793 220.82929180368873 L 200.0410575952709 209.90227001025596 L 216.493594440895 201.57765242068865 L 234.65815596613646 196.92049275082923 L 253.8184147070288 196.1144481382839 L 273.2536073008663 198.25580019674655 L 292.6988428273608 201.74578696341032 L 312.21665773722344 204.9608339829727 L 331.7589409117014 206.50730271246331 L 350.6799229642388 205.00474152424565 L 367.66701383755907 199.25450823983707 L 381.62352683907795 189.10911474179545 L 392.7303005929341 175.831310639965 L 402.2133076945498 161.12725968077376 L 411.1779028130833 146.05349890767656" fill="none" stroke="#c62828" stroke-width="2.8" stroke-linecap="round" stroke-linejoin="round"/>

  <!-- 航向箭头 (蓝色) -->
  <line x1="100.0" y1="338.2" x2="90.7" y2="330.6" stroke="#1565c0" stroke-width="1.5" marker-end="url(#arrB)"/>
  <line x1="103.1" y1="314.7" x2="108.8" y2="304.1" stroke="#1565c0" stroke-width="1.5" marker-end="url(#arrB)"/>
  <line x1="133.3" y1="271.8" x2="140.7" y2="262.3" stroke="#1565c0" stroke-width="1.5" marker-end="url(#arrB)"/>
  <line x1="171.7" y1="233.1" x2="179.9" y2="224.3" stroke="#1565c0" stroke-width="1.5" marker-end="url(#arrB)"/>
  <line x1="216.5" y1="201.6" x2="228.0" y2="198.1" stroke="#1565c0" stroke-width="1.5" marker-end="url(#arrB)"/>
  <line x1="273.3" y1="198.3" x2="285.0" y2="200.8" stroke="#1565c0" stroke-width="1.5" marker-end="url(#arrB)"/>
  <line x1="331.8" y1="206.5" x2="343.7" y2="205.4" stroke="#1565c0" stroke-width="1.5" marker-end="url(#arrB)"/>
  <line x1="381.6" y1="189.1" x2="388.5" y2="179.3" stroke="#1565c0" stroke-width="1.5" marker-end="url(#arrB)"/>
  <line x1="411.2" y1="146.1" x2="416.6" y2="135.3" stroke="#1565c0" stroke-width="1.5" marker-end="url(#arrB)"/>

  <!-- 起点 -->
  <circle cx="100.0" cy="338.2" r="8" fill="none" stroke="#4caf50" stroke-width="2.5"/>
  <text x="100.0" y="356.2" text-anchor="middle" font-size="9" fill="#2e7d32" font-weight="bold">起点(1,1)</text>

  <!-- 终点 -->
  <line x1="414.0" y1="129.8" x2="426.0" y2="141.8" stroke="#c62828" stroke-width="2.5"/>
  <line x1="426.0" y1="129.8" x2="414.0" y2="141.8" stroke="#c62828" stroke-width="2.5"/>
  <text x="420.0" y="125.8" text-anchor="middle" font-size="9" fill="#c62828" font-weight="bold">终点(9,7)</text>

  <!-- 坐标轴 -->
  <g stroke="#555" stroke-width="1" fill="#555" marker-end="url(#arrow)">
    <line x1="60" y1="372" x2="80" y2="372"/>
    <line x1="60" y1="372" x2="60" y2="352"/>
  </g>
  <text x="82" y="376" font-size="8" fill="#555">X(m)</text>
  <text x="52" y="352" font-size="8" fill="#555">Y</text>

  <!-- 图例 -->
  <g transform="translate(70, 380)">
    <rect x="0" y="0" width="380" height="18" rx="3" fill="none"/>
    <rect x="4" y="3" width="10" height="12" rx="1" fill="#bbb" stroke="#888" stroke-width="0.6"/>
    <text x="18" y="13" font-size="8" fill="#555">货架</text>
    <line x1="55" y1="9" x2="75" y2="9" stroke="#c62828" stroke-width="2.5"/>
    <text x="79" y="13" font-size="8" fill="#555">Hybrid A* 规划路径 (25点, 11.04m)</text>
    <circle cx="230" cy="9" r="4" fill="none" stroke="#4caf50" stroke-width="1.5"/>
    <text x="238" y="13" font-size="8" fill="#555">起点</text>
    <line x1="264" y1="5" x2="272" y2="13" stroke="#c62828" stroke-width="1.5"/>
    <line x1="272" y1="5" x2="264" y2="13" stroke="#c62828" stroke-width="1.5"/>
    <text x="276" y="13" font-size="8" fill="#555">终点</text>
    <line x1="302" y1="9" x2="316" y2="9" stroke="#1565c0" stroke-width="1.2" marker-end="url(#arrB)"/>
    <text x="320" y="13" font-size="8" fill="#555">航向</text>
  </g>

  <!-- ===== 中左：参考路径 vs 循迹轨迹 ===== -->
  <rect x="30" y="410" width="220" height="190" rx="8" fill="#fff" stroke="#e0e0e0" stroke-width="1"/>
  <text x="140" y="430" text-anchor="middle" font-size="11" font-weight="bold" fill="#283593">参考路径 vs 循迹轨迹</text>
  <rect x="52" y="440" width="180" height="135" rx="2" fill="#fafafa" stroke="#ddd" stroke-width="0.6"/>
  <path d="M 70.0 558.1 L 68.3 552.5 L 75.5 539.1 L 85.0 524.9 L 96.3 511.8 L 108.4 499.4 L 122.4 489.8 L 139.2 487.1 L 156.7 489.9 L 174.3 492.3 L 190.5 488.6 L 201.7 476.9 L 210.0 462.0" fill="none" stroke="#1565c0" stroke-width="2.2" stroke-linecap="round"/>
  <path d="M 70.0 558.1 L 68.4 556.8 L 67.7 554.9 L 67.8 552.9 L 68.5 551.0 L 69.4 549.1 L 70.5 547.4 L 71.8 545.8 L 72.9 544.0 L 73.9 542.3 L 74.9 540.5 L 76.0 538.7 L 77.1 536.9 L 78.1 535.2 L 79.2 533.4 L 80.3 531.7 L 81.5 530.0 L 82.6 528.3 L 83.8 526.6 L 85.1 524.9 L 86.4 523.3 L 87.7 521.7 L 89.0 520.1 L 90.4 518.5 L 91.8 517.0 L 93.2 515.5 L 94.6 514.0 L 96.0 512.4 L 97.4 510.9 L 98.9 509.4 L 100.3 507.8 L 101.7 506.3 L 103.2 504.8 L 104.6 503.3 L 106.1 501.8 L 107.5 500.3 L 109.0 498.8 L 110.6 497.4 L 112.2 496.1 L 113.8 494.7 L 115.5 493.5 L 117.3 492.5 L 119.2 491.4 L 121.0 490.4 L 123.0 489.5 L 125.0 488.9 L 127.1 488.3 L 129.2 487.7 L 131.3 487.3 L 133.5 487.2 L 135.6 487.1 L 137.8 487.0 L 139.9 487.0 L 142.1 487.2 L 144.2 487.5 L 146.4 487.8 L 148.5 488.1 L 150.6 488.5 L 152.7 488.9 L 154.8 489.4 L 156.9 490.0 L 159.0 490.4 L 161.1 490.8 L 163.2 491.2 L 165.4 491.6 L 167.5 491.8 L 169.6 492.0 L 171.8 492.2 L 174.0 492.3 L 176.1 492.2 L 178.3 492.1 L 180.4 491.9 L 182.5 491.6 L 184.6 491.0 L 186.6 490.2 L 188.6 489.5 L 190.5 488.6 L 192.3 487.3 L 193.9 486.0 L 195.5 484.7 L 197.0 483.3 L 198.4 481.7 L 199.6 480.0 L 200.9 478.4 L 202.0 476.6 L 203.0 474.8 L 203.9 473.0 L 204.9 471.2 L 205.9 469.4 L 206.9 467.6 L 207.8 465.8" fill="none" stroke="#c62828" stroke-width="1.3" stroke-dasharray="5,2" stroke-linecap="round"/>
  <circle cx="70.0" cy="558.1" r="4.5" fill="none" stroke="#4caf50" stroke-width="1.5"/>
  <g transform="translate(56, 578)">
    <line x1="0" y1="5" x2="22" y2="5" stroke="#1565c0" stroke-width="2.2"/>
    <text x="26" y="9" font-size="8" fill="#555">参考路径</text>
    <line x1="82" y1="5" x2="104" y2="5" stroke="#c62828" stroke-width="1.3" stroke-dasharray="5,2"/>
    <text x="108" y="9" font-size="8" fill="#555">循迹轨迹</text>
  </g>

  <!-- ===== 中右：横向误差曲线 ===== -->
  <rect x="270" y="410" width="220" height="190" rx="8" fill="#fff" stroke="#e0e0e0" stroke-width="1"/>
  <text x="380" y="430" text-anchor="middle" font-size="11" font-weight="bold" fill="#283593">循迹横向误差</text>
  <rect x="292" y="440" width="180" height="135" rx="2" fill="#fafafa" stroke="#ddd" stroke-width="0.6"/>

  <!-- 零线 -->
  <line x1="292" y1="507.5" x2="472" y2="507.5" stroke="#aaa" stroke-width="0.5" stroke-dasharray="2,2"/>

  <!-- RMS带 ±0.96cm -->
  <line x1="292" y1="475.1" x2="472" y2="475.1" stroke="#1565c0" stroke-width="0.8" stroke-dasharray="3,2"/>
  <line x1="292" y1="539.9" x2="472" y2="539.9" stroke="#1565c0" stroke-width="0.8" stroke-dasharray="3,2"/>
  <text x="474" y="472.1" font-size="7" fill="#1565c0">+RMS</text>
  <text x="474" y="549.9" font-size="7" fill="#1565c0">−RMS</text>

  <!-- ±3cm参考线 -->
  <line x1="292" y1="406.2" x2="472" y2="406.2" stroke="#4caf50" stroke-width="0.6" stroke-dasharray="2,2" opacity="0.5"/>
  <line x1="292" y1="608.8" x2="472" y2="608.8" stroke="#4caf50" stroke-width="0.6" stroke-dasharray="2,2" opacity="0.5"/>

  <!-- 误差曲线 (红色) -->
  <polyline points="292.0,507.5 293.0,500.6 294.0,496.5 295.0,521.7 296.0,456.5 297.0,424.4 298.0,413.3 299.0,430.7 300.0,417.7 301.0,411.3 301.9,407.8 302.9,406.4 303.9,434.7 304.9,486.7 305.9,515.7 306.9,529.4 307.9,535.3 308.9,539.6 309.9,540.9 310.9,540.6 311.9,539.0 312.9,539.7 313.9,542.4 314.9,541.1 315.9,539.8 316.9,538.4 317.9,542.7 318.9,541.6 319.8,539.9 320.8,538.8 321.8,539.7 322.8,532.4 323.8,525.8 324.8,520.7 325.8,516.9 326.8,514.6 327.8,522.5 328.8,523.9 329.8,526.8 330.8,519.2 331.8,513.2 332.8,511.3 333.8,509.2 334.8,508.7 335.8,509.7 336.8,512.5 337.7,523.5 338.7,522.8 339.7,523.9 340.7,526.8 341.7,531.4 342.7,537.7 343.7,539.1 344.7,540.4 345.7,540.5 346.7,540.9 347.7,539.5 348.7,538.5 349.7,538.1 350.7,538.3 351.7,537.9 352.7,540.7 353.7,540.3 354.7,540.8 355.6,535.4 356.6,533.4 357.6,528.1 358.6,522.3 359.6,515.8 360.6,508.8 361.6,514.5 362.6,507.6 363.6,489.6 364.6,479.9 365.6,473.3 366.6,481.3 367.6,477.8 368.6,473.0 369.6,466.8 370.6,497.6 371.6,485.8 372.6,478.9 373.5,473.5 374.5,485.5 375.5,480.6 376.5,473.8 377.5,466.0 378.5,506.2 379.5,490.5 380.5,482.7 381.5,478.0 382.5,474.2 383.5,470.7 384.5,465.7 385.5,464.0 386.5,509.4 387.5,490.9 388.5,480.9 389.5,474.3 390.5,482.2 391.4,478.6 392.4,473.5 393.4,467.0 394.4,496.3 395.4,484.3 396.4,478.6 397.4,475.1 398.4,473.1 399.4,477.6 400.4,475.5 401.4,472.8 402.4,472.5 403.4,479.1 404.4,476.4 405.4,475.1 406.4,473.9 407.4,476.3 408.4,483.3 409.3,498.5 410.3,518.8 411.3,529.7 412.3,536.7 413.3,536.9 414.3,538.5 415.3,540.0 416.3,542.0 417.3,544.8 418.3,534.3 419.3,530.1 420.3,536.4 421.3,540.4 422.3,534.3 423.3,536.3 424.3,539.1 425.3,543.5 426.3,549.3 427.2,517.5 428.2,529.9 429.2,537.1 430.2,543.6 431.2,531.2 432.2,537.9 433.2,546.1 434.2,554.9 435.2,506.5 436.2,524.1 437.2,534.3 438.2,542.1 439.2,549.1 440.2,523.3 441.2,528.6 442.2,532.0 443.2,510.5 444.2,528.7 445.1,539.1 446.1,531.2 447.1,534.2 448.1,538.1 449.1,543.7 450.1,543.3 451.1,523.3 452.1,532.1 453.1,537.8 454.1,540.9 455.1,544.8 456.1,537.8 457.1,538.5 458.1,533.7 459.1,523.4 460.1,524.7 461.1,520.0 462.1,509.2 463.0,493.1 464.0,483.6 465.0,476.3 466.0,475.0 467.0,472.4 468.0,473.8 469.0,474.6 470.0,475.0 471.0,475.3 471.9,475.4"
            fill="none" stroke="#c62828" stroke-width="1.2" stroke-linejoin="round"/>

  <!-- 最大误差标注 -->
  <text x="305" y="400.8" font-size="7" fill="#e65100">3.0cm</text>

  <!-- RMS标注 -->
  <text x="448" y="472.1" font-size="7" fill="#1565c0" font-weight="bold">RMS=0.96cm</text>

  <!-- 坐标轴标注 -->
  <text x="460" y="568" font-size="7" fill="#555">时间(s)</text>
  <text x="296" y="452" font-size="7" fill="#555">误差(cm)</text>

  <!-- ===== 算法流程 ===== -->
  <rect x="30" y="614" width="460" height="90" rx="8" fill="#fff" stroke="#e0e0e0" stroke-width="1"/>
  <rect x="48" y="626" width="80" height="24" rx="5" fill="#283593"/>
  <text x="88" y="643" text-anchor="middle" font-size="12" font-weight="bold" fill="#fff">算法流程</text>

  <g transform="translate(55, 662)">
    <rect x="0" y="0" width="72" height="30" rx="4" fill="#e8eaf6" stroke="#5c6bc0" stroke-width="1"/>
    <text x="36" y="13" text-anchor="middle" font-size="8" font-weight="bold" fill="#283593">栅格地图</text>
    <text x="36" y="24" text-anchor="middle" font-size="7" fill="#666">10×8m, 0.2m</text>
    <line x1="72" y1="15" x2="88" y2="15" stroke="#555" stroke-width="1" marker-end="url(#arrow)"/>

    <rect x="88" y="0" width="72" height="30" rx="4" fill="#e8eaf6" stroke="#5c6bc0" stroke-width="1"/>
    <text x="124" y="13" text-anchor="middle" font-size="8" font-weight="bold" fill="#283593">Hybrid A*</text>
    <text x="124" y="24" text-anchor="middle" font-size="7" fill="#666">10种运动基元</text>
    <line x1="160" y1="15" x2="176" y2="15" stroke="#555" stroke-width="1" marker-end="url(#arrow)"/>

    <rect x="176" y="0" width="72" height="30" rx="4" fill="#e8eaf6" stroke="#5c6bc0" stroke-width="1"/>
    <text x="212" y="13" text-anchor="middle" font-size="8" font-weight="bold" fill="#283593">路径平滑</text>
    <text x="212" y="24" text-anchor="middle" font-size="7" fill="#666">3次均值滤波</text>
    <line x1="248" y1="15" x2="264" y2="15" stroke="#555" stroke-width="1" marker-end="url(#arrow)"/>

    <rect x="264" y="0" width="72" height="30" rx="4" fill="#e8f5e9" stroke="#43a047" stroke-width="1"/>
    <text x="300" y="13" text-anchor="middle" font-size="8" font-weight="bold" fill="#2e7d32">PID循迹</text>
    <text x="300" y="24" text-anchor="middle" font-size="7" fill="#666">5路红外纠偏</text>
    <line x1="336" y1="15" x2="352" y2="15" stroke="#555" stroke-width="1" marker-end="url(#arrow)"/>

    <rect x="352" y="0" width="72" height="30" rx="4" fill="#fff3e0" stroke="#e65100" stroke-width="1"/>
    <text x="388" y="13" text-anchor="middle" font-size="8" font-weight="bold" fill="#e65100">执行输出</text>
    <text x="388" y="24" text-anchor="middle" font-size="7" fill="#666">ωₗ, ωᵣ 轮速</text>
  </g>

  <!-- ===== 仿真结果指标 ===== -->
  <rect x="30" y="718" width="460" height="146" rx="8" fill="#fff" stroke="#e0e0e0" stroke-width="1"/>
  <rect x="48" y="730" width="80" height="24" rx="5" fill="#283593"/>
  <text x="88" y="747" text-anchor="middle" font-size="12" font-weight="bold" fill="#fff">仿真结果</text>

  <rect x="48" y="762" width="100" height="52" rx="6" fill="#e8f5e9" stroke="#43a047" stroke-width="1"/>
  <text x="98" y="782" text-anchor="middle" font-size="10" fill="#2e7d32">RMS 横向误差</text>
  <text x="98" y="802" text-anchor="middle" font-size="16" font-weight="bold" fill="#2e7d32">0.96 cm</text>

  <rect x="160" y="762" width="100" height="52" rx="6" fill="#fff3e0" stroke="#e65100" stroke-width="1"/>
  <text x="210" y="782" text-anchor="middle" font-size="10" fill="#e65100">最大横向误差</text>
  <text x="210" y="802" text-anchor="middle" font-size="16" font-weight="bold" fill="#e65100">3.01 cm</text>

  <rect x="272" y="762" width="100" height="52" rx="6" fill="#e3f2fd" stroke="#1565c0" stroke-width="1"/>
  <text x="322" y="782" text-anchor="middle" font-size="10" fill="#1565c0">规划路径长度</text>
  <text x="322" y="802" text-anchor="middle" font-size="16" font-weight="bold" fill="#1565c0">11.04 m</text>

  <rect x="384" y="762" width="92" height="52" rx="6" fill="#f3e5f5" stroke="#7b1fa2" stroke-width="1"/>
  <text x="430" y="782" text-anchor="middle" font-size="10" fill="#7b1fa2">循迹耗时</text>
  <text x="430" y="802" text-anchor="middle" font-size="16" font-weight="bold" fill="#7b1fa2">36.2 s</text>

  <text x="60" y="838" font-size="10" fill="#444">传感器覆盖宽度 ±80mm，最大误差在检测裕量内。路径搜索迭代 3008 次，控制器响应平稳。</text>
  <text x="60" y="854" font-size="10" fill="#444">曲率集合 κ ∈ {−1.11, −0.52, 0, 0.52, 1.11} m⁻¹，步长 0.5m，轮距 L=0.52m。</text>

</svg>